PathFileType  4	(X/Y/Z) C:\Users\antoi\Documents\MyRepositories\mobilecap\ResultsAnalysis
DataRate	CameraRate	NumFrames	NumMarkers	Units	OrigDataRate	OrigDataStartFrame	OrigNumFrames
100.0	100.0	6	51	mm	100.0	56	221
Frame#	Time	r_knee			r_shank_antsup			r_ankle			r_calc			r_5meta			r_toe			L_knee			L_shank_antsup			L_ankle			L_calc			L_5meta			L_toe			r_sh2			r_sh3			r_sh4			L_sh2			L_sh3			r_thigh1			r_thigh2			r_thigh3			r_thigh4			r_thigh5			L_thigh1			L_thigh2			L_thigh3			L_thigh4			r.ASIS			r.PSIS			L.ASIS			L.PSIS			C7			R_Shoulder			L_Shoulder			R_Sternum			L_Sternum			R_humerus			R_elbow_med			R_elbow_lat			R_forearm			R_wrist_radius			R_wrist_ulna			L_humerus			L_elbow_med			L_elbow_lat			L_forearm			L_wrist_radius			L_wrist_ulna			R_HJC			L_HJC			R_HJC_reg			L_HJC_reg			
		X1	Y1	Z1	X2	Y2	Z2	X3	Y3	Z3	X4	Y4	Z4	X5	Y5	Z5	X6	Y6	Z6	X7	Y7	Z7	X8	Y8	Z8	X9	Y9	Z9	X10	Y10	Z10	X11	Y11	Z11	X12	Y12	Z12	X13	Y13	Z13	X14	Y14	Z14	X15	Y15	Z15	X16	Y16	Z16	X17	Y17	Z17	X18	Y18	Z18	X19	Y19	Z19	X20	Y20	Z20	X21	Y21	Z21	X22	Y22	Z22	X23	Y23	Z23	X24	Y24	Z24	X25	Y25	Z25	X26	Y26	Z26	X27	Y27	Z27	X28	Y28	Z28	X29	Y29	Z29	X30	Y30	Z30	X31	Y31	Z31	X32	Y32	Z32	X33	Y33	Z33	X34	Y34	Z34	X35	Y35	Z35	X36	Y36	Z36	X37	Y37	Z37	X38	Y38	Z38	X39	Y39	Z39	X40	Y40	Z40	X41	Y41	Z41	X42	Y42	Z42	X43	Y43	Z43	X44	Y44	Z44	X45	Y45	Z45	X46	Y46	Z46	X47	Y47	Z47	X48	Y48	Z48	X49	Y49	Z49	X50	Y50	Z50	X51	Y51	Z51	

56	0.55000000	-940.24258	712.81423	-439.97951	-959.44533	639.04325	-422.01831	-1159.12215	411.22165	-464.58515	-1237.80586	380.93642	-503.88732	-1072.07202	349.38971	-433.31711	-1024.90428	362.02259	-489.28207	-867.51872	734.40374	-713.17865	-878.61531	662.36423	-721.39773	-1111.15022	458.43686	-713.98336	-1191.56922	458.39719	-666.45120	-1057.57234	371.24520	-743.92643	-1002.45833	365.93706	-691.18568	-1023.48383	545.46207	-422.11331	-1021.37148	681.59193	-426.78124	-1093.20063	590.69407	-429.48940	-939.12883	726.99342	-736.74467	-1018.14936	634.25713	-744.57438	-889.97549	1024.74592	-424.56293	-873.53205	912.73514	-423.04844	-920.07708	883.54707	-383.52487	-984.15806	1013.14175	-360.70094	-975.37260	897.61063	-380.61966	-880.71838	1023.43853	-713.28751	-835.81754	892.05197	-712.56146	-989.90696	988.58440	-738.49027	-936.68671	856.82453	-732.56092	-900.33442	1161.52109	-422.32397	-1081.01310	1205.97997	-491.87276	-904.89389	1161.80822	-679.21029	-1086.12178	1201.37383	-600.72636	-950.95741	1655.93400	-530.06932	-906.56056	1583.42001	-378.47435	-866.12191	1601.18632	-687.13066	-841.89475	1558.29599	-507.12263	-835.88849	1562.44527	-546.46613	-896.70819	1353.73096	-285.45023	-916.60034	1236.90858	-330.32152	-908.59512	1266.65451	-261.84729	-793.48947	1222.26991	-255.34733	-690.73206	1168.60997	-262.81178	-709.22426	1130.26807	-249.64049	-816.30404	1487.44040	-738.66877	-834.10570	1263.56178	-756.71971	-806.22164	1287.91942	-806.80177	-707.68810	1227.93966	-786.98574	-639.65275	1124.57823	-752.63650	-649.40347	1106.48408	-783.23074	-976.66086	1096.43875	-448.93410	-976.98217	1098.33893	-649.21693	-973.57196	1094.83110	-452.33872	-981.51429	1087.66906	-621.57290	
57	0.56000000	-937.59578	710.60614	-439.01707	-957.14105	636.91013	-420.90752	-1158.77424	411.16106	-464.63658	-1237.57401	381.18550	-503.88426	-1072.03246	349.28988	-433.21760	-1024.69138	361.49029	-489.25838	-851.14786	735.19396	-713.32497	-862.82636	663.16452	-721.44484	-1099.69727	464.77465	-712.47515	-1180.13789	468.05173	-665.49043	-1049.45810	375.82725	-742.40057	-994.70630	368.42646	-689.55521	-1021.98524	543.85271	-421.48112	-1018.74860	679.77762	-426.01683	-1091.33056	589.63045	-428.99035	-921.95720	728.98038	-736.67191	-1002.96280	637.98542	-744.07007	-883.69006	1022.20689	-423.02865	-868.55062	910.09528	-421.06120	-915.84041	881.42631	-381.76786	-978.92665	1011.86985	-359.88681	-971.11509	896.00889	-379.73462	-873.19112	1023.47229	-713.51077	-823.93782	893.59261	-713.22564	-981.45603	985.28444	-737.72506	-924.02521	855.30605	-732.68030	-893.52904	1159.35865	-420.85845	-1074.88638	1203.21673	-491.33919	-899.10942	1159.03020	-678.57444	-1080.13575	1197.85176	-599.76461	-947.42064	1653.47132	-528.77545	-902.60653	1581.03616	-377.49669	-863.00643	1600.38352	-686.16422	-837.41698	1556.48389	-506.13677	-831.57965	1560.78620	-545.61288	-885.34764	1354.66090	-280.65114	-899.51431	1235.93713	-322.77760	-893.12750	1267.72228	-254.97162	-775.44362	1230.81448	-248.70829	-669.50155	1184.14907	-256.18346	-685.28293	1144.99513	-242.19795	-811.10203	1489.76574	-738.95081	-821.11560	1265.59156	-761.82388	-793.98753	1291.99368	-811.49497	-692.52345	1237.56279	-790.14097	-619.34164	1138.74983	-754.51789	-626.91382	1120.09894	-786.03846	-969.99545	1094.04331	-447.76264	-970.63205	1095.24703	-648.04972	-967.12643	1092.75966	-450.41292	-975.34418	1084.36044	-620.13918	
58	0.57000000	-934.36871	708.64925	-438.25029	-954.72527	635.02983	-419.72913	-1158.27890	411.31069	-464.66644	-1237.24084	381.72541	-503.83637	-1071.94918	349.07363	-433.17550	-1024.38349	360.90996	-489.31715	-835.15763	736.57454	-713.77364	-847.16231	664.19571	-721.57003	-1087.88251	470.83298	-711.42700	-1168.14748	476.07271	-664.28978	-1039.54913	380.51089	-740.68000	-984.90719	372.41717	-687.79906	-1020.28286	542.48519	-421.00344	-1016.08657	678.35140	-425.01691	-1089.41552	588.76774	-428.49218	-905.02820	731.10713	-736.93502	-987.63238	641.68980	-744.03578	-877.38104	1020.05922	-421.42162	-863.41448	907.85486	-419.03794	-911.33337	879.70673	-380.11352	-973.35308	1011.08280	-359.16284	-966.56160	894.73872	-378.98544	-865.46055	1023.74417	-713.78826	-812.41003	895.39691	-714.07234	-972.78532	982.48572	-736.91870	-912.39638	854.29028	-732.88155	-886.29369	1157.64824	-419.71406	-1068.39739	1200.91216	-490.98734	-893.09327	1156.71750	-677.60298	-1073.78512	1194.94387	-599.17889	-943.87316	1651.48807	-527.14211	-898.46105	1579.26490	-376.51183	-861.40170	1600.04916	-684.27341	-832.85804	1555.04923	-505.41321	-826.82996	1559.70685	-545.07444	-873.88623	1356.55645	-275.83905	-882.03625	1236.15575	-315.14946	-877.33163	1270.01108	-248.07332	-757.50204	1240.84109	-242.16157	-648.78663	1201.42350	-249.82110	-661.73213	1161.61692	-234.87187	-805.81867	1492.82812	-739.37372	-807.94609	1268.73215	-767.62571	-781.52463	1297.33032	-816.55398	-677.55855	1248.45826	-793.34693	-599.82397	1154.78356	-756.57447	-604.99636	1135.40030	-788.80722	-963.06171	1092.13488	-446.72568	-963.93840	1092.65021	-647.01556	-960.27335	1091.13462	-448.81257	-968.72879	1081.76879	-618.61143	
59	0.58000000	-930.93768	706.80661	-437.14822	-952.30157	633.32920	-418.70161	-1157.58892	411.65470	-464.76887	-1236.80754	382.71064	-503.83316	-1071.84250	348.73878	-433.11252	-1024.07298	360.39173	-489.20966	-819.46954	738.54063	-714.81737	-831.65718	665.70139	-721.84858	-1075.38539	476.51736	-710.71272	-1155.24262	483.04009	-662.77273	-1028.31168	384.84709	-738.73710	-973.66152	376.54549	-685.80917	-1018.45846	541.35552	-420.45394	-1013.33422	677.32254	-424.01592	-1087.33281	588.27270	-427.97804	-888.46636	733.50708	-737.56796	-972.45669	645.35559	-744.03738	-870.93570	1018.22910	-420.09114	-858.11041	905.91209	-417.42131	-906.51995	878.28172	-378.80246	-967.26530	1010.24909	-358.44578	-961.60865	893.87911	-378.06599	-857.37865	1024.40666	-714.12749	-800.98487	897.49914	-715.05444	-963.78150	980.40891	-736.30347	-900.60834	853.79383	-732.99506	-878.84139	1156.25954	-418.94754	-1061.49222	1199.03622	-490.64768	-886.51317	1155.12664	-676.92701	-1067.02860	1192.75800	-598.99970	-940.23931	1649.98555	-525.42489	-893.92813	1578.12448	-375.68447	-860.87452	1600.31099	-681.41229	-828.04246	1554.07272	-504.79010	-822.10015	1558.93165	-544.42786	-862.25711	1359.42238	-271.11610	-864.47110	1237.50948	-307.24426	-861.24356	1273.64733	-241.10925	-739.77630	1252.43072	-235.78618	-628.84170	1220.33582	-243.76374	-638.85525	1180.11462	-227.73855	-800.45215	1496.61267	-739.81011	-794.59298	1272.98857	-773.61705	-768.99018	1303.91960	-821.71271	-662.85878	1260.59977	-796.63347	-580.60057	1172.11555	-759.32292	-583.73394	1152.31919	-791.65345	-955.80992	1090.58030	-446.11704	-956.82247	1090.78812	-646.40719	-953.00941	1089.74769	-447.77575	-961.68690	1079.90717	-617.61319	
60	0.59000000	-927.63520	705.33179	-435.57921	-949.91929	631.93747	-417.72678	-1156.69538	412.20173	-464.80523	-1236.23158	384.12019	-503.97625	-1071.71265	348.43816	-433.01471	-1023.66180	359.94082	-488.87701	-804.07547	740.86160	-716.13259	-816.26627	667.85703	-722.42532	-1061.83888	481.52540	-709.69846	-1141.31752	489.36301	-661.13694	-1016.07505	388.66772	-736.58386	-961.38997	380.02031	-683.75410	-1016.74048	540.62345	-419.58247	-1010.43071	676.59116	-423.12375	-1085.13691	588.20625	-427.45836	-872.43679	736.27316	-738.70329	-957.40675	648.92963	-744.05542	-864.17135	1016.59300	-419.32875	-852.59554	904.18806	-416.12584	-901.35436	877.01033	-377.82013	-960.65110	1009.29921	-357.85644	-956.29796	893.35657	-377.03417	-848.91181	1025.56711	-714.63439	-789.50488	899.98936	-716.10627	-954.43679	979.20994	-736.00168	-887.56723	854.02255	-733.16420	-871.09344	1155.21407	-418.65897	-1054.07912	1197.55985	-490.23584	-879.19892	1154.47062	-676.88159	-1059.82462	1191.15502	-598.75294	-936.36151	1648.96810	-523.84768	-888.93124	1577.67750	-375.01265	-859.32526	1601.24227	-679.06702	-822.63928	1553.88758	-504.08489	-818.09213	1558.20055	-543.18026	-850.39612	1363.30048	-266.52779	-846.62501	1240.31111	-299.31014	-845.05719	1278.60919	-234.20704	-722.53242	1265.47312	-229.69036	-609.94068	1240.63433	-238.15940	-617.08452	1200.26730	-221.07120	-794.94149	1501.13457	-740.13752	-781.09346	1278.46393	-779.39455	-756.46597	1311.69683	-826.85745	-648.48993	1273.93188	-800.09460	-561.63936	1190.45574	-762.59592	-563.28693	1170.72898	-794.66201	-947.93863	1089.34015	-445.98892	-949.19897	1089.77208	-646.27647	-945.17763	1088.78589	-447.31689	-954.17775	1078.75271	-617.29484	
61	0.60000000	-924.38359	704.29708	-434.12476	-947.52128	631.02864	-416.67893	-1155.63663	412.99979	-464.68563	-1235.43815	385.82759	-504.22491	-1071.49591	348.30722	-432.97649	-1022.97165	359.60163	-488.37039	-788.95144	743.79293	-717.80566	-800.90529	670.69331	-723.55161	-1047.35856	485.69921	-708.31303	-1126.56075	494.93618	-659.55947	-1002.87218	391.88245	-734.34706	-948.12115	382.93428	-681.72974	-1015.20335	540.31583	-418.69182	-1007.53386	676.13445	-422.38974	-1083.00216	588.44214	-427.04860	-856.98874	739.29735	-740.21627	-942.34258	652.35126	-744.39897	-857.14573	1015.21616	-418.83464	-846.85496	902.75881	-415.10392	-895.80723	876.06525	-376.96518	-953.63799	1008.81964	-357.38718	-950.67391	893.08528	-376.20383	-840.15319	1027.33974	-715.24408	-778.02595	903.09528	-717.18728	-944.78123	978.84707	-735.91814	-874.24873	855.06659	-733.68499	-862.89623	1154.55433	-418.78848	-1046.16368	1196.51949	-489.80428	-871.38482	1154.74015	-677.01063	-1052.16987	1190.01373	-598.20882	-932.23897	1648.40082	-522.48625	-883.49854	1577.96359	-374.55027	-856.14459	1602.81848	-677.84140	-816.68983	1554.60436	-503.41153	-814.15030	1558.27725	-542.12273	-838.28749	1368.26587	-262.06072	-828.31551	1244.90422	-291.82921	-829.07409	1284.91717	-227.51747	-706.06176	1279.80048	-223.99152	-592.29593	1262.05048	-233.09104	-596.70775	1221.75810	-215.01646	-789.24959	1506.39789	-740.46897	-767.61805	1285.21934	-785.22008	-744.01956	1320.66566	-832.11846	-634.66122	1288.32020	-803.66328	-543.62346	1209.82615	-765.68258	-543.86381	1190.36292	-797.77551	-939.40820	1088.46835	-446.12257	-941.10205	1089.53362	-646.40434	-936.80457	1088.55190	-447.20496	-946.22161	1078.35187	-617.15771	
